# xmcd CD database file
#
# Track frame offsets:
#	182
#	13375
#	27075
#	42450
#	54600
#	68175
#	79950
#	91950
#	103650
#	113775
#	124575
#	136675
#	156100
#	166125
#	177650
#	192600
#	204425
#
# Disc length: 3028 seconds
#
# Revision: 0
# Processed by: cddbd v1.5.2PL0 Copyright (c) Steve Scherf et al.
# Submitted via: CDex 1.70beta2
#
DISCID=ec0bd211
DTITLE=Varios - Noche de Revelion
DYEAR=1900
DGENRE=Salsa
TTITLE0=Las 12 Campanadas
TTITLE1=La Morena De Mi Copla
TTITLE2=España Cañi
TTITLE3=El Manisero
TTITLE4=Brasil
TTITLE5=La Conga
TTITLE6=La Cumparsita
TTITLE7=En Forma
TTITLE8=Rock Del Reloj
TTITLE9=Lets Twist Again
TTITLE10=Mambo N?. 5
TTITLE11=La Bamba
TTITLE12=Tequila
TTITLE13=Sevillanas Populares
TTITLE14=El Baile De Los Pajaritos
TTITLE15=El Porompompero
TTITLE16=Rumba Mix:Tracatra/El Lunar De Maria/El
EXTD=
EXTT0=
EXTT1=
EXTT2=
EXTT3=
EXTT4=
EXTT5=
EXTT6=
EXTT7=
EXTT8=
EXTT9=
EXTT10=
EXTT11=
EXTT12=
EXTT13=
EXTT14=
EXTT15=
EXTT16=
PLAYORDER=
